<svg width="2560" height="720" fill="none" xmlns="http://www.w3.org/2000/svg"><g clip-path="url(#clip0_1319_3856)"><path fill="#E5E8EE" d="M0 0h2560v720H0z"/><path fill="url(#paint0_linear_1319_3856)" d="M1859 0h914v720h-914z"/><path d="M1252.95 0H2457v722h-777l-504.18-545.75C1113.7 109.001 1161.4 0 1252.95 0z" fill="url(#paint1_linear_1319_3856)"/><path d="M1885.5 314L1159 720.5h835V314h-108.5z" fill="#E5E8EE"/><g filter="url(#filter0_f_1319_3856)"><ellipse cx="682.5" cy="82" rx="382.5" ry="260" fill="#ECEEF3"/></g><path d="M990.832 467.577L557 .5H-5.5v722H988l22.74-35.69c44.03-69.093 35.85-159.203-19.908-219.233z" fill="url(#paint2_linear_1319_3856)"/><path opacity=".9" d="M1492.95 0H2697v722h-777l-504.18-545.75C1353.7 109.001 1401.4 0 1492.95 0z" fill="url(#paint3_linear_1319_3856)"/><g filter="url(#filter1_f_1319_3856)"><ellipse cx="2237.5" cy="417" rx="382.5" ry="260" fill="#ECEEF3"/></g><path d="M2127.8-2H2773v722h-371l-403.52-416.797C1887.91 188.995 1968.84-2 2127.8-2z" fill="url(#paint4_linear_1319_3856)"/></g><defs><linearGradient id="paint0_linear_1319_3856" x1="2316" y1="0" x2="2767" y2="720" gradientUnits="userSpaceOnUse"><stop stop-color="#F0F2F5"/><stop offset=".485" stop-color="#F4F6F8"/><stop offset="1" stop-color="#F4F6F8"/></linearGradient><linearGradient id="paint1_linear_1319_3856" x1="1154" y1="31.5" x2="2175" y2="722" gradientUnits="userSpaceOnUse"><stop stop-color="#E9EBF1"/><stop offset=".426" stop-color="#EDEEF5" stop-opacity=".6"/><stop offset="1" stop-color="#EBECF2"/></linearGradient><linearGradient id="paint2_linear_1319_3856" x1="1086" y1="507" x2="326.512" y2="57.094" gradientUnits="userSpaceOnUse"><stop stop-color="#ECEEF3"/><stop offset=".401" stop-color="#EBEDF2"/><stop offset="1" stop-color="#E6E9EF"/></linearGradient><linearGradient id="paint3_linear_1319_3856" x1="1394" y1="31.5" x2="2436" y2="734.5" gradientUnits="userSpaceOnUse"><stop stop-color="#F4F6F8"/><stop offset=".567" stop-color="#EEF0F4"/><stop offset="1" stop-color="#EBECF2"/></linearGradient><linearGradient id="paint4_linear_1319_3856" x1="2043.5" y1="99.5" x2="2773" y2="732.5" gradientUnits="userSpaceOnUse"><stop stop-color="#E8EAF0" stop-opacity=".56"/><stop offset=".402" stop-color="#F2F4F7"/><stop offset="1" stop-color="#F5F7F9"/></linearGradient><filter id="filter0_f_1319_3856" x="50" y="-428" width="1265" height="1020" filterUnits="userSpaceOnUse" color-interpolation-filters="sRGB"><feFlood flood-opacity="0" result="BackgroundImageFix"/><feBlend in="SourceGraphic" in2="BackgroundImageFix" result="shape"/><feGaussianBlur stdDeviation="125" result="effect1_foregroundBlur_1319_3856"/></filter><filter id="filter1_f_1319_3856" x="1605" y="-93" width="1265" height="1020" filterUnits="userSpaceOnUse" color-interpolation-filters="sRGB"><feFlood flood-opacity="0" result="BackgroundImageFix"/><feBlend in="SourceGraphic" in2="BackgroundImageFix" result="shape"/><feGaussianBlur stdDeviation="125" result="effect1_foregroundBlur_1319_3856"/></filter><clipPath id="clip0_1319_3856"><path fill="#fff" d="M0 0h2560v720H0z"/></clipPath></defs></svg>