<svg width="2560" height="720" fill="none" xmlns="http://www.w3.org/2000/svg"><g clip-path="url(#clip0_1219_840)"><path fill="#E5E8EE" d="M0 0h2560v720H0z"/><path fill="url(#paint0_linear_1219_840)" d="M1646 0h914v720h-914z"/><path d="M1039.95 0H2244v722h-777L962.824 176.25C900.698 109.001 948.395 0 1039.95 0z" fill="url(#paint1_linear_1219_840)"/><path d="M1672.5 314L946 720.5h835V314h-108.5z" fill="#E5E8EE"/><g filter="url(#filter0_f_1219_840)"><ellipse cx="469.5" cy="82" rx="382.5" ry="260" fill="#ECEEF3"/></g><path d="M777.832 467.577L344 .5H1.5v722H775l22.743-35.69c44.03-69.093 35.846-159.203-19.911-219.233z" fill="url(#paint2_linear_1219_840)"/><path opacity=".9" d="M1279.95 0H2484v722h-777l-504.18-545.75C1140.7 109.001 1188.4 0 1279.95 0z" fill="url(#paint3_linear_1219_840)"/><g filter="url(#filter1_f_1219_840)"><ellipse cx="2024.5" cy="417" rx="382.5" ry="260" fill="#ECEEF3"/></g><path d="M1914.8-2H2560v722h-371l-403.52-416.797C1674.91 188.995 1755.84-2 1914.8-2z" fill="url(#paint4_linear_1219_840)"/></g><defs><linearGradient id="paint0_linear_1219_840" x1="2103" y1="0" x2="2554" y2="720" gradientUnits="userSpaceOnUse"><stop stop-color="#F0F2F5"/><stop offset=".485" stop-color="#F4F6F8"/><stop offset="1" stop-color="#F4F6F8"/></linearGradient><linearGradient id="paint1_linear_1219_840" x1="941" y1="31.5" x2="1962" y2="722" gradientUnits="userSpaceOnUse"><stop stop-color="#E9EBF1"/><stop offset=".426" stop-color="#EDEEF5" stop-opacity=".6"/><stop offset="1" stop-color="#EBECF2"/></linearGradient><linearGradient id="paint2_linear_1219_840" x1="873" y1="507" x2="113.512" y2="57.094" gradientUnits="userSpaceOnUse"><stop stop-color="#ECEEF3"/><stop offset=".401" stop-color="#EBEDF2"/><stop offset="1" stop-color="#E6E9EF"/></linearGradient><linearGradient id="paint3_linear_1219_840" x1="1181" y1="31.5" x2="2223" y2="734.5" gradientUnits="userSpaceOnUse"><stop stop-color="#F4F6F8"/><stop offset=".567" stop-color="#EEF0F4"/><stop offset="1" stop-color="#EBECF2"/></linearGradient><linearGradient id="paint4_linear_1219_840" x1="1830.5" y1="99.5" x2="2560" y2="732.5" gradientUnits="userSpaceOnUse"><stop stop-color="#E8EAF0" stop-opacity=".56"/><stop offset=".402" stop-color="#F2F4F7"/><stop offset="1" stop-color="#F5F7F9"/></linearGradient><filter id="filter0_f_1219_840" x="-163" y="-428" width="1265" height="1020" filterUnits="userSpaceOnUse" color-interpolation-filters="sRGB"><feFlood flood-opacity="0" result="BackgroundImageFix"/><feBlend in="SourceGraphic" in2="BackgroundImageFix" result="shape"/><feGaussianBlur stdDeviation="125" result="effect1_foregroundBlur_1219_840"/></filter><filter id="filter1_f_1219_840" x="1392" y="-93" width="1265" height="1020" filterUnits="userSpaceOnUse" color-interpolation-filters="sRGB"><feFlood flood-opacity="0" result="BackgroundImageFix"/><feBlend in="SourceGraphic" in2="BackgroundImageFix" result="shape"/><feGaussianBlur stdDeviation="125" result="effect1_foregroundBlur_1219_840"/></filter><clipPath id="clip0_1219_840"><path fill="#fff" d="M0 0h2560v720H0z"/></clipPath></defs></svg>